<svg width="52" height="52" viewBox="0 0 52 52" fill="none" xmlns="http://www.w3.org/2000/svg">
<path d="M26.0079 44.5401H3.71429V18.5597H40.8728V25.9804C40.8728 27.008 41.7052 27.8395 42.7339 27.8395C43.7626 27.8395 44.595 27.008 44.595 25.9804V7.42076C44.595 5.37339 42.9302 3.7104 40.8807 3.7104H35.3053V1.85129C35.3053 0.823685 34.473 -0.0078125 33.4443 -0.0078125C32.4156 -0.0078125 31.5832 0.823685 31.5832 1.85129V3.7104H24.1546V1.85129C24.1546 0.823685 23.3223 -0.0078125 22.2936 -0.0078125C21.2649 -0.0078125 20.4325 0.823685 20.4325 1.85129V3.7104H13.0039V1.85129C13.0039 0.823685 12.1715 -0.0078125 11.1429 -0.0078125C10.1142 -0.0078125 9.28179 0.823685 9.28179 1.85129V3.7104H3.70643C1.66475 3.7104 0 5.37339 0 7.42076V44.5401C0 46.5874 1.66475 48.2504 3.71429 48.2504H26.0079C27.0365 48.2504 27.8689 47.4189 27.8689 46.3913C27.8689 45.3637 27.0365 44.5322 26.0079 44.5322V44.5401ZM3.71429 7.42076H9.28964V9.27986C9.28964 10.3075 10.122 11.139 11.1507 11.139C12.1794 11.139 13.0118 10.3075 13.0118 9.27986V7.42076H20.4403V9.27986C20.4403 10.3075 21.2727 11.139 22.3014 11.139C23.3301 11.139 24.1625 10.3075 24.1625 9.27986V7.42076H31.5911V9.27986C31.5911 10.3075 32.4234 11.139 33.4521 11.139C34.4808 11.139 35.3132 10.3075 35.3132 9.27986V7.42076H40.8885V14.8415H3.71429V7.42076Z" fill="#9747FF"/>
<path d="M26.0079 27.8395C27.0365 27.8395 27.8689 27.008 27.8689 25.9804C27.8689 24.9528 27.0365 24.1213 26.0079 24.1213H24.1468C24.1468 23.0937 23.3144 22.2622 22.2857 22.2622C21.257 22.2622 20.4246 23.0937 20.4246 24.1213C18.3751 24.1213 16.7104 25.7843 16.7104 27.8317V29.6908C16.7104 31.7381 18.3751 33.4011 20.4246 33.4011H24.1389V35.2602H18.5636C17.5349 35.2602 16.7025 36.0917 16.7025 37.1193C16.7025 38.147 17.5349 38.9785 18.5636 38.9785H20.4246C20.4246 40.0061 21.257 40.8376 22.2857 40.8376C23.3144 40.8376 24.1468 40.0061 24.1468 38.9785C26.1963 38.9785 27.8611 37.3155 27.8611 35.2681V33.409C27.8611 31.3616 26.1963 29.6986 24.1468 29.6986H20.4325V27.8395H26.0079Z" fill="#9747FF"/>
<path d="M51.4817 39.5119C51.0891 39.1119 50.5316 38.9158 49.974 38.9707C48.961 33.9503 44.061 30.6949 39.0275 31.7068C37.7868 31.9579 36.6089 32.4599 35.5723 33.1737C34.7635 33.8013 34.6143 34.9701 35.2425 35.778C35.8236 36.5311 36.8837 36.7194 37.6925 36.2173C40.2211 34.468 43.6919 35.0956 45.4431 37.6293C45.7258 38.045 45.9613 38.4922 46.1262 38.9628C45.1133 39.1432 44.4458 40.1081 44.6264 41.12C44.6892 41.4809 44.862 41.8182 45.1211 42.0849L46.9822 43.944C47.7046 44.6735 48.8825 44.6735 49.6128 43.9518C49.6128 43.9518 49.6128 43.9518 49.6207 43.944L51.4817 42.0849C52.1806 41.3632 52.1806 40.2258 51.4817 39.5041V39.5119Z" fill="#9747FF"/>
<path d="M44.0453 47.2463C41.5168 49.0035 38.0459 48.3759 36.2869 45.85C36.0042 45.4421 35.7765 45.0029 35.6116 44.5322C36.6246 44.3518 37.2921 43.3869 37.1114 42.375C37.0486 42.0142 36.8759 41.6769 36.6167 41.4102L34.7557 39.5511C34.0332 38.8215 32.8553 38.8215 32.125 39.5432C32.125 39.5432 32.125 39.5432 32.1172 39.5511L30.2561 41.4102C29.5258 42.1318 29.5258 43.3085 30.2483 44.038C30.2483 44.038 30.2483 44.038 30.2561 44.0459C30.6566 44.4302 31.2063 44.6106 31.7638 44.5479C32.7768 49.5683 37.6768 52.8236 42.7104 51.8117C43.9511 51.5607 45.129 51.0587 46.1655 50.3448C47.0372 49.8036 47.3041 48.6583 46.7623 47.7876C46.2205 46.9169 45.074 46.6502 44.2024 47.1914C44.1474 47.2228 44.0924 47.262 44.0453 47.3012V47.2463Z" fill="#9747FF"/>
</svg>
