<svg width="94" height="69" viewBox="0 0 94 69" fill="none" xmlns="http://www.w3.org/2000/svg">
<g clip-path="url(#clip0_262_1224)">
<path d="M19.76 13.7401C19.02 13.7401 18.42 13.1401 18.42 12.4001C18.42 11.6601 19.02 11.0601 19.76 11.0601C20.5 11.0601 21.1 11.6601 21.1 12.4001C21.1 13.1401 20.5 13.7401 19.76 13.7401Z" fill="#68DCFA"/>
<path d="M1.34 69C0.599996 69 -4.27291e-06 68.4 -4.27291e-06 67.66C-4.27291e-06 66.92 0.599996 66.32 1.34 66.32H14.49L13.74 65.49C12 63.55 11.04 61.05 11.04 58.46V57.96H5.01C2.24 57.96 -0.0200043 55.71 -0.0200043 52.93V5.03C-4.27291e-06 2.25 2.25 0 5.03 0H57.71C60.48 0 62.74 2.25 62.74 5.03V18.42H78.65C80.57 18.42 82.29 19.48 83.15 21.2L85.82 26.53C88.64 32.29 90.45 35.82 91.53 37.94C92.7367 40.3067 93.3367 41.8033 93.33 42.43V52.92C93.33 55.05 91.98 56.95 89.97 57.66L89.63 57.78L89.65 58.44C89.65 61.04 88.69 63.53 86.95 65.47L86.2 66.3H91.98C92.72 66.3 93.32 66.9 93.32 67.64C93.32 68.38 92.72 68.98 91.98 68.98H1.34V69ZM79.08 50.58C75.35 50.58 72.11 53.23 71.37 56.87C71.26 57.38 71.21 57.91 71.21 58.45C71.21 62.79 74.74 66.32 79.08 66.32C83.42 66.32 86.95 62.79 86.95 58.45C86.95 57.91 86.9 57.39 86.79 56.88C86.05 53.23 82.81 50.58 79.08 50.58ZM32.16 58.45C32.16 61.05 31.2 63.54 29.46 65.48L28.71 66.31H71.96L71.21 65.48C69.47 63.54 68.51 61.04 68.51 58.45V57.95H32.14V58.45H32.16ZM21.6 50.58C17.87 50.58 14.63 53.23 13.89 56.87C13.79 57.38 13.73 57.91 13.73 58.45C13.73 62.79 17.26 66.32 21.6 66.32C25.94 66.32 29.47 62.79 29.47 58.45C29.47 57.93 29.42 57.42 29.32 56.93V56.9L29.29 56.82C28.57 53.23 25.33 50.59 21.6 50.59V50.58ZM62.74 55.26H69.01L69.13 54.93C70.62 50.72 74.62 47.89 79.08 47.89C83.54 47.89 87.33 50.58 88.9 54.59L89.14 55.19L89.66 54.81C90.27 54.37 90.63 53.66 90.63 52.91V43.2H68.76C68.02 43.2 67.42 42.6 67.42 41.86V27.12C67.42 26.38 68.02 25.78 68.76 25.78H82.43L80.73 22.39C80.33 21.59 79.53 21.09 78.64 21.09H62.73V55.25L62.74 55.26ZM21.6 47.89C26.06 47.89 30.06 50.72 31.55 54.93L31.67 55.26H60.05V5.03C60.05 3.74 59 2.69 57.71 2.69H5.03C3.74 2.69 2.69 3.74 2.69 5.03V40.53H8.72C9.46 40.53 10.06 41.13 10.06 41.87V49.24C10.06 49.98 9.46 50.58 8.72 50.58H2.68V52.92C2.68 54.21 3.73 55.26 5.02 55.26H11.53L11.65 54.93C13.14 50.72 17.14 47.9 21.6 47.9V47.89ZM2.68 47.89H7.36V43.21H2.68V47.89ZM70.1 28.47V40.52H89.8L83.77 28.47H70.1Z" fill="#68DCFA"/>
<path d="M27.13 13.7401C26.39 13.7401 25.79 13.1401 25.79 12.4001C25.79 11.6601 26.39 11.0601 27.13 11.0601H50.34C51.08 11.0601 51.68 11.6601 51.68 12.4001C51.68 13.1401 51.08 13.7401 50.34 13.7401H27.13Z" fill="#68DCFA"/>
<path d="M34.5 21.1099C33.76 21.1099 33.16 20.5099 33.16 19.7699C33.16 19.0299 33.76 18.4299 34.5 18.4299H50.34C51.08 18.4299 51.68 19.0299 51.68 19.7699C51.68 20.5099 51.08 21.1099 50.34 21.1099H34.5Z" fill="#68DCFA"/>
<path d="M79.08 61.63C80.8363 61.63 82.26 60.2063 82.26 58.45C82.26 56.6938 80.8363 55.27 79.08 55.27C77.3237 55.27 75.9 56.6938 75.9 58.45C75.9 60.2063 77.3237 61.63 79.08 61.63Z" fill="#68DCFA"/>
<path d="M21.6 61.63C19.84 61.63 18.42 60.2 18.42 58.45C18.42 56.7 19.85 55.27 21.6 55.27C23.35 55.27 24.78 56.7 24.78 58.45C24.78 60.2 23.35 61.63 21.6 61.63Z" fill="#68DCFA"/>
</g>
<defs>
<clipPath id="clip0_262_1224">
<rect width="93.32" height="69" fill="white"/>
</clipPath>
</defs>
</svg>
