<svg width="50" height="62" viewBox="0 0 50 62" fill="none" xmlns="http://www.w3.org/2000/svg">
<g clip-path="url(#clip0_262_1231)">
<path d="M42.98 22C37.72 16.19 34.6 11.08 32.9 7.82C31.06 4.28 30.46 2.09 30.46 2.07L29.91 0L27.96 0.87C27.73 0.97 22.34 3.43 19.32 9.47C17.8 12.5 17.5 15.88 17.51 18.18C17.51 19.52 16.57 20.68 15.26 20.94C14.34 21.12 13.39 20.84 12.73 20.17L9.09 16.53L7.84 18.25C7.71 18.43 4.65 22.64 4.1 23.49C1.38 27.62 -0.0400016 32.41 -1.64501e-06 37.36C0.0499984 43.97 2.65 50.17 7.32 54.81C11.99 59.45 18.21 62 24.82 62C38.51 62 49.65 50.86 49.65 37.17C49.65 32.21 47.22 26.67 42.98 21.99V22ZM24.83 58.36C19.18 58.36 13.88 56.18 9.89 52.22C5.9 48.26 3.68 42.97 3.64 37.33C3.61 33.1 4.82 29.01 7.14 25.5C7.42 25.07 8.56 23.49 9.54 22.12L10.16 22.74C11.69 24.27 13.86 24.92 15.98 24.5C19 23.9 21.17 21.23 21.16 18.15C21.15 16.25 21.39 13.48 22.58 11.09C24.04 8.18 26.21 6.28 27.72 5.22C29.09 8.7 32.55 15.88 40.29 24.43C42.01 26.33 46.02 31.38 46.02 37.17C46.02 48.85 36.51 58.36 24.83 58.36Z" fill="#9747FF"/>
<path d="M28.51 30.8501L17.11 47.5401H21.14L32.54 30.8501H28.51Z" fill="#9747FF"/>
<path d="M30.94 38.48C28.41 38.48 26.5 40.17 26.5 43.13C26.5 46.09 28.41 47.78 30.94 47.78C33.47 47.78 35.38 46.11 35.38 43.13C35.38 40.15 33.47 38.48 30.94 38.48ZM30.94 45.2C30.42 45.2 29.89 44.72 29.89 43.13C29.89 41.54 30.41 41.06 30.94 41.06C31.47 41.06 31.99 41.54 31.99 43.13C31.99 44.73 31.47 45.2 30.94 45.2Z" fill="#9747FF"/>
<path d="M23.14 35.2601C23.14 32.3001 21.23 30.6101 18.7 30.6101C16.17 30.6101 14.26 32.3001 14.26 35.2601C14.26 38.2201 16.17 39.9101 18.7 39.9101C21.23 39.9101 23.14 38.2401 23.14 35.2601ZM17.66 35.2601C17.66 33.6601 18.18 33.1901 18.71 33.1901C19.24 33.1901 19.76 33.6701 19.76 35.2601C19.76 36.8501 19.24 37.3301 18.71 37.3301C18.18 37.3301 17.66 36.8501 17.66 35.2601Z" fill="#9747FF"/>
</g>
<defs>
<clipPath id="clip0_262_1231">
<rect width="49.65" height="62" fill="white"/>
</clipPath>
</defs>
</svg>
