<svg width="64" height="64" viewBox="0 0 64 64" fill="none" xmlns="http://www.w3.org/2000/svg">
<g clip-path="url(#clip0_260_1209)">
<path d="M62.448 28.232L58.08 23.864C57.048 22.832 56.192 20.784 56.192 19.312V13.136C56.192 10.2 53.792 7.79999 50.856 7.79999H44.68C43.216 7.79999 41.16 6.95199 40.128 5.91199L35.76 1.54399C33.688 -0.52801 30.288 -0.52801 28.216 1.54399L23.848 5.91199C22.808 6.94399 20.76 7.79999 19.296 7.79999H13.12C10.184 7.79999 7.784 10.2 7.784 13.136V19.312C7.784 20.776 6.936 22.832 5.896 23.864L1.528 28.232C-0.544 30.304 -0.544 33.704 1.528 35.776L5.896 40.144C6.936 41.176 7.784 43.232 7.784 44.696V50.872C7.784 53.808 10.184 56.208 13.12 56.208H19.296C20.76 56.208 22.816 57.056 23.848 58.096L28.216 62.464C30.288 64.536 33.688 64.536 35.76 62.464L40.128 58.096C41.168 57.064 43.216 56.208 44.68 56.208H50.856C53.792 56.208 56.192 53.808 56.192 50.872V44.696C56.192 43.224 57.04 41.176 58.08 40.144L62.448 35.776C64.52 33.696 64.52 30.304 62.448 28.232Z" fill="#028200"/>
<path d="M26.696 42.9359L17.064 33.3039C16.472 32.7119 16.472 31.7599 17.064 31.1679L18.696 29.5359C19.288 28.9439 20.24 28.9439 20.832 29.5359L26.688 35.3919C27.28 35.9839 28.232 35.9839 28.824 35.3919L43.144 21.0719C43.736 20.4799 44.688 20.4799 45.28 21.0719L46.912 22.7039C47.504 23.2959 47.504 24.2479 46.912 24.8399L28.816 42.9359C28.224 43.5279 27.272 43.5279 26.68 42.9359H26.696Z" fill="white"/>
</g>
<defs>
<clipPath id="clip0_260_1209">
<rect width="64" height="64" fill="white"/>
</clipPath>
</defs>
</svg>
