<svg width="84" height="70" viewBox="0 0 84 70" fill="none" xmlns="http://www.w3.org/2000/svg">
<g clip-path="url(#clip0_294_302)">
<path d="M16.1415 31.3684C15.1158 31.3684 14.298 32.2001 14.298 33.212C14.298 34.2239 15.1297 35.0555 16.1415 35.0555C17.1534 35.0555 17.9851 34.2239 17.9851 33.212C17.9851 32.2001 17.1534 31.3684 16.1415 31.3684Z" fill="#2DC4EB"/>
<path d="M82.5515 32.297C81.7475 31.4098 80.7634 30.7445 79.6545 30.3425C80.5555 29.4831 81.5673 28.7207 82.6624 28.0831C83.5357 27.5564 83.8129 26.4059 83.2861 25.5465C82.7594 24.6871 81.6366 24.4098 80.7772 24.9088C78.6703 26.1148 76.8545 27.695 75.3713 29.6078C73.6386 29.6633 71.9475 30.2455 70.5337 31.2296C67.6228 25.7544 61.8842 21.291 54.3297 18.6574C53.7198 18.4494 53.0683 18.5603 52.5693 18.9484L43.7535 25.9484C43.1574 26.4197 42.9079 27.2237 43.1436 27.9445L45.8465 36.6078L39.8723 43.4554L38.7356 33.8217C38.6663 33.2534 38.3337 32.7405 37.8485 32.4494L33.5931 29.9267L36.9198 18.7682C37.2109 17.7841 36.6564 16.7583 35.6723 16.4673C35.4505 16.3979 35.2149 16.3841 34.9792 16.3979C33.2604 16.5504 31.5277 16.8138 29.8505 17.1603C25.2347 14.3187 18.7891 11.5326 9.62674 14.7069C9.15545 14.8732 8.7812 15.2059 8.57328 15.6494C8.35149 16.093 8.33763 16.592 8.49011 17.0633C8.65644 17.5346 9.00298 17.9227 9.44654 18.1306C11.8723 19.2534 14.0069 20.9445 15.6703 23.0376C11.7891 25.6158 8.75347 29.3999 7.06238 33.7524C5.87031 33.7524 4.6505 33.7108 3.81882 33.6831C3.77724 33.6831 3.73565 33.6831 3.69407 33.6831C1.86436 33.6692 0.381197 35.0831 0.31189 36.8989C0.31189 37.0514 0.31189 37.2177 0.325751 37.3702L1.37922 47.1702C1.54555 48.6673 2.68219 49.8732 4.16535 50.1227L10.7218 51.19C12.7594 53.5187 15.1574 55.4871 17.8465 57.0257L19.6624 67.2276C19.9535 68.8356 21.3396 69.9861 22.9614 69.9861H29.8921C31.7357 69.9861 33.2465 68.4752 33.2465 66.6316V62.0574C38.7495 62.7643 44.2802 62.5009 49.7139 61.3088V66.4514C49.7139 68.295 51.2248 69.8059 53.0683 69.8059H60.1376C61.8426 69.8059 63.2703 68.5306 63.4644 66.8257L64.9059 54.1564C71.3792 48.7643 73.9574 41.7227 71.9891 34.7643C72.3772 34.4039 72.8208 34.0851 73.3059 33.8494C72.7931 35.8871 72.9871 37.7306 73.8604 39.1168C74.6644 40.3781 75.9812 41.1682 77.5753 41.3623C79.7931 41.6257 81.8584 40.5029 82.9673 38.4237C84.0901 36.3445 83.9376 33.8772 82.5792 32.2692L82.5515 32.297ZM79.8901 36.192C79.7515 36.7187 79.405 37.1623 78.9337 37.4395C78.6426 37.6059 78.296 37.7029 77.9634 37.7168C77.4505 37.6474 77.0901 37.4395 76.8822 37.0514C76.4802 36.3168 76.6604 34.9306 77.3258 33.5029C78.2129 33.6692 79.0307 34.0712 79.7099 34.6811C79.9594 35.1524 80.0287 35.6791 79.8901 36.192ZM51.5436 57.095C51.3772 57.095 51.197 57.1227 51.0446 57.1643C44.7931 58.897 38.1119 59.2296 31.7079 58.1068C30.7099 57.9267 29.7396 58.6059 29.5733 59.6039C29.5594 59.7148 29.5456 59.8257 29.5456 59.9366V66.3128H23.2525L21.3396 55.5425C21.2426 54.988 20.896 54.5168 20.4109 54.2395C17.6109 52.7564 15.1713 50.7742 13.1614 48.3346C12.8703 47.9742 12.4683 47.7385 12.0109 47.6692L5.03862 46.5326L4.06833 37.3979C5.16337 37.4395 6.90991 37.4811 8.43466 37.4534C9.25248 37.4395 9.97328 36.8712 10.1951 36.0673C11.2901 31.9227 14.4921 28.0415 19.2465 25.1306C19.6624 24.8673 19.9673 24.4653 20.0782 23.9801C20.1891 23.495 20.1198 23.0098 19.8426 22.5663C18.5396 20.5009 16.9178 18.7128 15.005 17.2158C21.0901 16.3979 24.7218 18.297 28.5059 20.6811C28.9218 20.9445 29.4208 21.0276 29.8921 20.9168C30.7515 20.7227 31.6525 20.5564 32.5535 20.4177L29.6287 30.2593C29.3931 31.0772 29.7257 31.9504 30.4604 32.3801L35.1733 35.1663L36.698 48.0296C36.7535 48.5148 37.003 48.9583 37.3911 49.2633C37.7792 49.5682 38.2644 49.7069 38.7495 49.6376C39.2069 49.5821 39.6089 49.3603 39.9139 49.0276L49.3119 38.2574C49.7416 37.7722 49.8802 37.1069 49.6861 36.497L47.0663 28.0692L54.0802 22.497C62.4525 25.6712 67.803 31.091 68.7733 37.3702C69.5911 42.596 67.1931 47.7108 62.0228 51.7722C61.6347 52.0772 61.3852 52.5346 61.3297 53.0197L59.8327 66.1326H53.4287V58.9524C53.4287 57.9267 52.597 57.1088 51.5713 57.1088L51.5436 57.095Z" fill="#2DC4EB"/>
<path d="M43.5317 9.70297C44.5574 9.70297 45.3752 8.87129 45.3752 7.85941V1.84356C45.3752 0.817822 44.5436 0 43.5317 0C42.5198 0 41.6881 0.831683 41.6881 1.84356V7.85941C41.6881 8.88515 42.5198 9.70297 43.5317 9.70297Z" fill="#2DC4EB"/>
<path d="M26.4822 11.4635C26.7733 12.1704 27.4663 12.6001 28.1871 12.6001C28.4228 12.6001 28.6584 12.5585 28.8941 12.4615C29.8366 12.0734 30.2802 10.9922 29.8921 10.0496L27.5911 4.4912C27.203 3.54862 26.1218 3.10506 25.1792 3.49318C24.7218 3.68724 24.3752 4.03377 24.1812 4.4912C23.9871 4.94862 23.9871 5.44763 24.1812 5.90506L26.4822 11.4635Z" fill="#2DC4EB"/>
<path d="M58.1138 12.7525C58.3495 12.8495 58.5851 12.8911 58.8208 12.8911C59.5415 12.8911 60.2346 12.4614 60.5257 11.7545L62.8267 6.19607C63.2148 5.2535 62.7712 4.17231 61.8287 3.78419C60.8861 3.39607 59.8049 3.83964 59.4029 4.78221L57.1019 10.3406C56.7138 11.2832 57.1574 12.3644 58.1 12.7525H58.1138Z" fill="#2DC4EB"/>
</g>
<defs>
<clipPath id="clip0_294_302">
<rect width="83.3762" height="70" fill="white" transform="translate(0.31189)"/>
</clipPath>
</defs>
</svg>
