<svg width="168" height="159" viewBox="0 0 168 159" fill="none" xmlns="http://www.w3.org/2000/svg">
<path d="M73.6659 80.3138C74.1958 82.0003 75.4194 83.372 77.0179 84.1075C81.0719 85.8444 83.4954 82.8973 84.9438 81.1162C85.4597 80.3931 86.093 79.7339 86.8038 79.1942C87.3863 78.8 88.1774 78.8262 88.7309 79.2754C89.3471 79.9273 89.528 80.8711 89.1851 81.6979C88.9677 82.4316 88.4574 83.0501 87.7669 83.4019C87.4353 83.5208 87.0843 83.5074 86.7665 83.3646L85.3847 86.561C85.1449 87.1256 85.4565 87.7824 86.0542 87.8928C87.222 88.1384 88.4368 87.9929 89.5388 87.5002C90.5119 87.0637 91.382 86.3908 92.0666 85.5559L93.7758 86.2815L95.6476 82.1559L93.8674 81.3845C94.083 79.2966 93.3263 77.2359 91.7914 75.7953C89.6391 74.0228 86.5854 73.9082 84.3019 75.5033C83.2075 76.2483 82.2309 77.1465 81.3937 78.1885C79.6824 80.2758 79.4879 80.1815 78.8275 79.8684C78.4078 79.6677 78.0978 79.2786 77.9751 78.8208C77.756 78.2004 77.7921 77.52 78.0441 76.9246C78.0441 76.9246 78.6997 75.3481 79.6066 75.1705C79.9724 75.1006 80.3069 74.9294 80.4557 74.5962L81.5612 72.0569C81.8072 71.4769 81.4647 70.8079 80.8456 70.7069C78.8431 70.3646 76.7946 71.0905 75.4679 72.6524C75.199 72.974 74.7224 73.0537 74.3429 72.8867L73.3525 72.4616C72.859 72.2675 72.297 72.4738 72.0874 72.9613L71.0244 75.3927C70.8149 75.8801 71.0367 76.4482 71.5181 76.6731L72.6566 77.1743C73.0268 77.3199 73.2228 77.6819 73.2281 78.0758C73.2356 78.8267 73.3846 79.5799 73.6411 80.2863L73.6659 80.3138Z" fill="#2DC4EB"/>
<path d="M52.475 106.03L86.3074 119.852C86.5542 119.949 86.8131 120.016 87.0808 120.014C87.4318 120.027 87.7607 119.961 88.083 119.821C88.6356 119.593 89.0793 119.144 89.2977 118.589L98.6253 95.6863C99.472 97.3371 100.91 98.6152 102.629 99.2731C104.741 100.015 107.066 99.8074 109.024 98.725C110.431 102.573 114.687 104.567 118.535 103.16C118.974 102.994 119.41 102.792 119.805 102.556C120.562 104.616 122.166 106.244 124.223 107.036C124.898 107.266 125.589 107.412 126.29 107.439C128.346 107.464 130.346 106.772 131.951 105.498C134.323 103.635 136.099 101.11 137.064 98.2483C138.411 94.8244 138.392 91.0236 137.067 87.5998C135.958 82.5866 130.568 77.7245 123.441 75.153C118.243 73.0196 112.422 72.9211 107.159 74.8936L115.233 55.0423C115.488 54.4837 115.522 53.8557 115.3 53.2876C115.063 52.7135 114.614 52.2698 114.043 52.0454L80.2046 38.2387C79.6461 37.9834 79.0181 37.9502 78.45 38.172C77.8913 38.4153 77.4476 38.8641 77.2232 39.4348L68.8815 59.8755C67.4635 55.2396 62.5219 50.6426 55.8133 48.0933C48.6574 45.368 41.4756 45.6067 37.4589 48.7107C34.1787 50.3948 31.644 53.2624 30.3685 56.7321C27.8186 63.3515 29.6204 69.9548 34.3581 71.7647C36.4337 72.5097 38.7471 72.3332 40.6767 71.2756C41.9672 75.149 46.1649 77.2451 50.0383 75.9546C50.4929 75.795 50.9441 75.5985 51.3552 75.3684C52.1059 77.4445 53.7128 79.1094 55.7581 79.9315C56.4829 80.2166 57.2624 80.3629 58.0381 80.383C58.8876 80.3965 59.7333 80.2839 60.5537 80.0545L51.199 103.071C50.738 104.243 51.2813 105.579 52.4628 106.061L52.475 106.03ZM86.0101 114.767L81.7621 113.025C82.1989 111.914 83.0492 111.02 84.1513 110.527C85.2566 110.072 86.5214 110.071 87.6413 110.529L86.0101 114.767ZM107.269 80.1372C107.463 80.053 107.631 79.9412 107.791 79.8079C109.993 77.9671 115.373 77.0556 121.976 79.4209C128.579 81.7862 132.182 85.8924 132.715 88.7022C132.747 88.8928 132.816 89.0802 132.906 89.2581C133.84 91.6379 133.831 94.2877 132.866 96.6508C132.198 98.6674 130.959 100.46 129.292 101.799C128.346 102.62 127.058 102.951 125.85 102.671C124.507 101.876 123.692 100.416 123.702 98.8522L124.877 95.6816L120.563 94.1093L119.433 97.2089C118.406 98.4613 116.788 99.0893 115.18 98.8309C113.762 98.042 112.87 96.5515 112.873 94.9141L114.046 91.7066L109.746 90.1405L108.537 93.3513C107.516 94.5882 105.91 95.1854 104.327 94.9545C103.17 94.4104 102.366 93.3286 102.15 92.0681C101.733 90.2301 101.798 88.2969 102.367 86.4902L103.332 84.1271C104.189 82.3987 105.56 80.9965 107.266 80.1003L107.269 80.1372ZM106.008 53.6401L110.246 55.3605L108.526 59.5991C106.166 58.6711 105.021 56.0125 105.949 53.6528C105.949 53.6528 105.949 53.6528 105.955 53.6373L106.001 53.6555L106.008 53.6401ZM80.4893 43.2659L84.7438 45.0816C84.3071 46.1921 83.4567 47.0865 82.3547 47.5791C81.2434 48.0503 79.9724 48.0669 78.8526 47.6087L80.4893 43.2659ZM77.0419 51.6693C78.0168 52.0884 79.0679 52.3593 80.1239 52.4362C81.4692 52.5023 82.8158 52.2483 84.0406 51.7149C86.2788 50.7786 88.0534 48.9833 88.9759 46.7282L101.695 51.9263C99.7988 56.6122 102.046 61.948 106.725 63.8598L102.944 73.1115C99.665 62.205 88.1681 56.0273 77.2771 59.3128C76.5735 59.5169 75.8886 59.764 75.2224 60.0541C74.5469 60.3227 73.8841 60.6497 73.2614 61.0103L77.0143 51.6941L77.0419 51.6693ZM68.4338 72.8779C70.9736 66.6464 77.1519 62.665 83.8779 62.906C92.7188 63.2486 99.6189 70.6995 99.2763 79.5404C99.2169 80.9595 98.985 82.3642 98.5619 83.7116C98.4891 83.8967 98.4009 84.0757 98.3496 84.2514L98.3307 84.707L98.329 84.9379C94.766 93.0465 85.3083 96.7176 77.1996 93.1547C69.3934 89.7284 65.6483 80.7758 68.6581 72.8058L68.4553 72.8685L68.4338 72.8779ZM57.4663 75.7237C56.1229 74.9283 55.3081 73.4681 55.3175 71.9046L56.5858 68.7704L52.3289 67.0962L51.1704 70.0421C50.116 71.3193 48.4515 71.9291 46.8187 71.6431C45.4351 70.814 44.6231 69.3015 44.6876 67.6884L45.9917 64.3724L41.7195 62.6922L40.3911 66.0699C39.3549 67.3008 37.7455 67.8611 36.1711 67.5624C34.1385 66.7987 33.0508 62.8626 34.7388 58.3441C35.565 55.9264 37.2889 53.8975 39.547 52.6841L39.9493 52.5217C42.1762 50.7084 47.539 49.9325 54.1088 52.4272C60.6786 54.922 64.1836 59.0964 64.6437 62.0021C64.691 62.1988 64.7383 62.3955 64.8225 62.5889C65.6552 65 65.5473 67.6289 64.5361 69.9737C63.8241 71.9198 62.563 73.6322 60.9269 74.8942C59.9713 75.6938 58.6744 76.0029 57.4509 75.7177L57.4663 75.7237ZM63.5428 84.9521C65.3256 90.9246 69.73 95.7555 75.4988 98.1133C77.7076 99.0176 80.0681 99.5364 82.4568 99.621C86.2338 99.7529 89.9677 98.8172 93.2623 96.9607L89.5093 106.277C87.2542 105.354 84.7399 105.363 82.5017 106.299C80.2482 107.229 78.4736 109.025 77.5417 111.258L64.8109 106.18C65.7334 103.925 65.725 101.411 64.7887 99.1727C63.8524 96.9345 62.0571 95.1599 59.802 94.2374L63.5489 84.9367L63.5428 84.9521ZM58.0447 98.4793C60.3923 99.4382 61.5158 102.106 60.5629 104.438L56.3243 102.718L58.0447 98.4793Z" fill="#2DC4EB"/>
</svg>
