<svg version="1.2" xmlns="http://www.w3.org/2000/svg" viewBox="0 0 112 85" width="112" height="85">
	<title>Dinheiro-svg</title>
	<style>
		.s0 { fill: #2dc4eb } 
	</style>
	<path id="Layer" class="s0" d="m45.7 43.3c0.5 1.7 1.7 3.1 3.3 3.8 4.1 1.7 6.5-1.2 7.9-3 0.6-0.7 1.2-1.4 1.9-1.9 0.6-0.4 1.4-0.4 1.9 0.1 0.6 0.6 0.8 1.6 0.5 2.4-0.2 0.7-0.7 1.4-1.4 1.7q-0.5 0.2-1 0l-1.4 3.2c-0.3 0.5 0.1 1.2 0.7 1.3 1.1 0.2 2.3 0.1 3.4-0.4 1-0.4 1.9-1.1 2.6-1.9l1.7 0.7 1.8-4.1-1.7-0.8c0.2-2.1-0.6-4.2-2.1-5.6-2.2-1.8-5.2-1.9-7.5-0.3q-1.6 1.1-2.9 2.7c-1.7 2.1-1.9 2-2.6 1.7-0.4-0.2-0.7-0.6-0.8-1.1-0.2-0.6-0.2-1.3 0-1.9 0 0 0.7-1.6 1.6-1.7 0.4-0.1 0.7-0.3 0.9-0.6l1.1-2.5c0.2-0.6-0.1-1.3-0.8-1.4-2-0.3-4 0.4-5.3 2-0.3 0.3-0.8 0.4-1.2 0.2l-0.9-0.4c-0.5-0.2-1.1 0-1.3 0.5l-1.1 2.4c-0.2 0.5 0 1 0.5 1.3l1.2 0.5c0.3 0.1 0.5 0.5 0.5 0.9q0 1.1 0.4 2.2z"/>
	<path id="Layer" fill-rule="evenodd" class="s0" d="m24.5 69.1c-1.2-0.5-1.8-1.9-1.3-3l9.4-23q-1.3 0.3-2.6 0.3-1.1 0-2.2-0.5c-2.1-0.8-3.7-2.5-4.4-4.5q-0.7 0.3-1.4 0.6c-3.8 1.2-8-0.9-9.3-4.7-2 1-4.3 1.2-6.3 0.5-4.8-1.8-6.6-8.4-4-15.1 1.2-3.4 3.8-6.3 7.1-8 4-3.1 11.2-3.3 18.3-0.6 6.7 2.5 11.7 7.1 13.1 11.8l8.3-20.5c0.2-0.5 0.7-1 1.3-1.2 0.5-0.2 1.1-0.2 1.7 0l33.8 13.8c0.6 0.3 1.1 0.7 1.3 1.3 0.2 0.6 0.2 1.2-0.1 1.7l-8 19.9c5.2-2 11-1.9 16.2 0.3 7.2 2.5 12.6 7.4 13.7 12.4 1.3 3.4 1.3 7.2 0 10.6-1 2.9-2.8 5.4-5.1 7.3-1.7 1.3-3.7 2-5.7 1.9q-1.1 0-2.1-0.4c-2-0.8-3.6-2.4-4.4-4.4q-0.6 0.3-1.3 0.6c-3.8 1.4-8.1-0.6-9.5-4.5-1.9 1.1-4.3 1.3-6.4 0.6-1.7-0.7-3.1-2-4-3.6l-9.3 22.9c-0.2 0.5-0.7 1-1.2 1.2q-0.5 0.2-1 0.2-0.4 0-0.8-0.1l-33.8-13.9zm35.2 4.5c-1.2-0.5-2.4-0.5-3.5 0-1.1 0.5-2 1.4-2.4 2.5l4.2 1.7zm19.6-30.4c-1.7 0.9-3 2.3-3.9 4l-1 2.4c-0.5 1.8-0.6 3.7-0.2 5.6 0.2 1.2 1.1 2.3 2.2 2.9 1.6 0.2 3.2-0.4 4.2-1.6l1.2-3.3 4.3 1.6-1.1 3.2c0 1.7 0.8 3.1 2.3 3.9 1.6 0.3 3.2-0.3 4.2-1.6l1.1-3.1 4.4 1.6-1.2 3.2c0 1.5 0.8 3 2.1 3.8 1.2 0.3 2.5-0.1 3.5-0.9 1.6-1.3 2.9-3.1 3.5-5.1 1-2.4 1-5.1 0.1-7.4q-0.2-0.3-0.2-0.6c-0.5-2.8-4.1-6.9-10.7-9.3-6.6-2.3-12-1.4-14.2 0.4q-0.3 0.2-0.6 0.3zm-1.2-26.4h-0.1q0 0 0 0c-0.9 2.4 0.2 5 2.6 5.9l1.7-4.2-4.2-1.7zm-27.2-6.1c1.2 0.5 2.4 0.5 3.5 0 1.1-0.5 2-1.4 2.4-2.5l-4.2-1.8zm-1.9 4.1l-3.7 9.3q0.9-0.6 2-1 0.9-0.4 2-0.7c10.9-3.3 22.4 2.9 25.7 13.8l3.8-9.3c-4.7-1.9-7-7.2-5.1-11.9l-12.7-5.2c-0.9 2.3-2.7 4.1-4.9 5-1.3 0.5-2.6 0.8-3.9 0.7-1.1-0.1-2.2-0.3-3.1-0.7zm-8.6 21.1h0.2c-3 7.9 0.7 16.9 8.6 20.3 8.1 3.6 17.5-0.1 21.1-8.2v-0.2-0.5q0.1-0.3 0.2-0.5 0.6-2.1 0.7-4.2c0.4-8.8-6.5-16.3-15.4-16.6-6.7-0.3-12.9 3.7-15.4 9.9zm-11 2.9q0 0 0 0 0 0 0 0zm0 0c1.2 0.3 2.5 0 3.4-0.8 1.7-1.3 2.9-3 3.7-5 1-2.3 1.1-4.9 0.2-7.3q-0.1-0.3-0.1-0.6c-0.5-2.9-4-7.1-10.6-9.6-6.5-2.5-11.9-1.7-14.1 0.1l-0.4 0.1c-2.3 1.3-4 3.3-4.8 5.7-1.7 4.5-0.6 8.5 1.4 9.2 1.6 0.3 3.2-0.2 4.2-1.5l1.3-3.3 4.3 1.6-1.3 3.4c-0.1 1.6 0.8 3.1 2.1 3.9 1.7 0.3 3.3-0.3 4.4-1.6l1.1-2.9 4.3 1.6-1.3 3.2c0 1.5 0.8 3 2.2 3.8zm6.1 9.2l-3.8 9.3c2.3 0.9 4.1 2.7 5 4.9 0.9 2.3 1 4.8 0 7l12.8 5.1c0.9-2.2 2.7-4 4.9-4.9 2.3-1 4.8-1 7-0.1l3.8-9.3c-3.3 1.9-7 2.8-10.8 2.7-2.4-0.1-4.8-0.6-7-1.5-5.8-2.4-10.2-7.2-11.9-13.2zm-7.3 17.8l4.3 1.7c0.9-2.3-0.2-5-2.5-5.9z"/>
</svg>