<svg width="52" height="80" viewBox="0 0 52 80" fill="none" xmlns="http://www.w3.org/2000/svg">
<path d="M46.67 55V8.33C46.67 3.73 42.94 0 38.34 0H8.33C3.73 0 0 3.73 0 8.33V68.33C0 72.93 3.73 76.66 8.33 76.66H18.81L22.24 79.59C22.94 80.19 23.99 80.11 24.59 79.41C25.19 78.71 25.11 77.66 24.41 77.06L14.41 68.46C13.92 68.05 13.75 67.38 13.98 66.79C14.1 66.41 14.37 66.1 14.73 65.92C15.09 65.73 15.5 65.7 15.88 65.84L22.8 68.32C23.31 68.49 23.87 68.4 24.3 68.09C24.76 67.76 25.03 67.22 25 66.66V44.99C25 44.07 25.75 43.32 26.67 43.32C27.59 43.32 28.34 44.07 28.34 44.99V63.32C28.34 64.24 29.09 64.99 30.01 64.99C30.93 64.99 31.68 64.24 31.68 63.32V56.65C31.68 55.73 32.43 54.98 33.35 54.98C34.27 54.98 35.02 55.73 35.02 56.65V63.32C35.02 64.24 35.77 64.99 36.69 64.99C37.61 64.99 38.36 64.24 38.36 63.32V58.32C38.36 57.4 39.11 56.65 40.03 56.65C40.95 56.65 41.7 57.4 41.7 58.32V63.32C41.7 64.24 42.45 64.99 43.37 64.99C44.29 64.99 45.04 64.24 45.04 63.32V59.99C45.04 59.07 45.79 58.32 46.71 58.32C47.63 58.32 48.38 59.07 48.38 59.99V78.32C48.38 79.24 49.13 79.99 50.05 79.99C50.97 79.99 51.72 79.24 51.72 78.32V59.99C51.72 57.23 49.48 54.99 46.72 54.99L46.67 55ZM31.67 3.33V5C31.67 5.92 30.92 6.67 30 6.67H16.67C15.75 6.67 15 5.92 15 5V3.33H31.67ZM26.67 40C24.56 40 22.67 41.34 21.97 43.33H14.8L13.55 33.33H33.12L31.87 43.33H31.37C30.67 41.34 28.78 40 26.67 40ZM40 53.33C39.14 53.33 38.29 53.56 37.55 54C36.3 52.04 33.86 51.19 31.67 51.97V46.67H33.34C34.19 46.67 34.9 46.04 35.01 45.2L36.48 33.33H36.68C37.6 33.33 38.35 32.58 38.35 31.66C38.35 30.74 37.6 29.99 36.68 29.99H32.51L28.01 23.99C27.46 23.25 26.41 23.1 25.68 23.66C24.94 24.21 24.79 25.26 25.35 25.99L28.35 29.99H18.35L21.35 25.99C21.9 25.25 21.75 24.21 21.02 23.66C20.28 23.11 19.24 23.26 18.69 23.99L14.19 29.99H10.02C9.1 29.99 8.35 30.74 8.35 31.66C8.35 32.58 9.1 33.33 10.02 33.33H10.22L11.69 45.2C11.79 46.04 12.51 46.67 13.36 46.67H21.69V64.35L16.89 62.68C14.36 61.84 11.62 63.2 10.78 65.73C10.16 67.58 10.72 69.63 12.19 70.91L15.02 73.33H8.35C5.59 73.33 3.35 71.09 3.35 68.33V8.33C3.35 5.57 5.59 3.33 8.35 3.33H11.68V5C11.68 7.76 13.92 10 16.68 10H30.01C32.77 10 35.01 7.76 35.01 5V3.33H38.34C41.1 3.33 43.34 5.57 43.34 8.33V54.63C42.43 53.8 41.24 53.34 40.01 53.33H40Z" fill="#68DCFA"/>
</svg>
