<svg width="76" height="48" viewBox="0 0 76 48" fill="none" xmlns="http://www.w3.org/2000/svg">
<g clip-path="url(#clip0_264_1242)">
<path d="M75.2911 26.8744L69.2048 13.3488C68.1736 11.0698 65.9177 9.6 63.4408 9.6H52.2443V4.8C52.2443 2.14884 50.1174 0 47.4932 0H7.90026C5.27608 0 3.15832 2.14884 3.14911 4.8V24C3.14911 24.8837 3.83968 25.6093 4.71441 25.6186C5.58914 25.6186 6.30734 24.9209 6.31654 24.0372C6.31654 24.0279 6.31654 24.0186 6.31654 24.0093V4.8C6.31654 3.91628 7.02553 3.2 7.90026 3.2H47.4932C48.3679 3.2 49.0769 3.91628 49.0769 4.8V30.4C49.0769 31.2837 48.3679 32 47.4932 32H28.4886C27.6139 32 26.9141 32.7349 26.9233 33.6186C26.9233 34.493 27.6323 35.1907 28.4886 35.2H47.4932C50.1174 35.2 52.2443 33.0512 52.2443 30.4V12.8H63.4408C64.6839 12.8 65.8072 13.5349 66.3228 14.6791L66.9213 16H60.1629C58.4135 16 56.9955 17.4326 56.9955 19.2V25.6C56.9955 27.3674 58.4135 28.8 60.1629 28.8H72.6025C72.7498 29.2465 72.8234 29.7116 72.8327 30.186V36.8C72.8327 37.6837 72.1237 38.4 71.2489 38.4H66.3413C65.4665 34.0744 61.2863 31.2744 56.9955 32.1581C53.8833 32.8 51.4525 35.2558 50.8172 38.4H25.1554C24.2807 34.0744 20.1004 31.2744 15.8096 32.1581C12.6974 32.8 10.2666 35.2558 9.6313 38.4H7.89105C7.01632 38.4 6.30733 37.6837 6.30733 36.8V35.2C7.18206 35.2 7.88184 34.4651 7.87264 33.5814C7.87264 32.707 7.16365 32.0093 6.30733 32H1.56539C0.690664 32 -0.00911782 32.7349 8.98317e-05 33.6186C8.98317e-05 34.493 0.709079 35.1907 1.56539 35.2H3.14911V36.8C3.14911 39.4512 5.27608 41.6 7.90026 41.6H9.64051C10.5152 45.9256 14.6955 48.7256 18.9863 47.8419C22.0985 47.2 24.5293 44.7442 25.1646 41.6H50.8264C51.7011 45.9256 55.8814 48.7256 60.1721 47.8419C63.2843 47.2 65.7151 44.7442 66.3505 41.6H71.2581C73.8823 41.6 76.0093 39.4512 76.0093 36.8V30.186C76.0093 29.0419 75.7699 27.9163 75.3003 26.8744H75.2911ZM17.4026 44.8C14.7784 44.8 12.6514 42.6512 12.6514 40C12.6514 37.3488 14.7784 35.2 17.4026 35.2C20.0267 35.2 22.1537 37.3488 22.1537 40C22.1537 42.6512 20.0267 44.8 17.4026 44.8ZM58.5792 44.8C55.955 44.8 53.8281 42.6512 53.8281 40C53.8281 37.3488 55.955 35.2 58.5792 35.2C61.2034 35.2 63.3304 37.3488 63.3304 40C63.3304 42.6512 61.2034 44.8 58.5792 44.8ZM60.1629 19.2H68.3577L71.2397 25.6H60.1629V19.2Z" fill="#9747FF"/>
<path d="M27.3375 15.2C27.3375 12.9953 25.5605 11.2 23.3782 11.2H20.2108C19.3361 11.2 18.6271 11.9162 18.6271 12.8V22.4C18.6271 23.2837 19.3177 24.0093 20.1924 24.0186C21.0671 24.0186 21.7853 23.3209 21.7945 22.4372C21.7945 22.4279 21.7945 22.4186 21.7945 22.4093V20.493L24.3635 23.4604C24.9343 24.1302 25.9288 24.2046 26.5917 23.6372C27.2547 23.0604 27.3283 22.0558 26.7667 21.386C26.7667 21.386 26.7482 21.3674 26.7482 21.3581L24.6949 18.986C26.2787 18.4186 27.3375 16.9116 27.3375 15.2093V15.2ZM23.3782 16H21.7945V14.4H23.3782C23.811 14.4 24.1701 14.7627 24.1701 15.2C24.1701 15.6372 23.811 16 23.3782 16Z" fill="#9747FF"/>
<path d="M15.8188 14.4C16.6935 14.4 17.3933 13.6651 17.3841 12.7813C17.3841 11.9069 16.6751 11.2093 15.8188 11.2H11.0676C10.1929 11.2 9.48389 11.9162 9.48389 12.8V22.4C9.48389 23.2837 10.1745 24.0093 11.0492 24.0186C11.9239 24.0279 12.6421 23.3209 12.6513 22.4372C12.6513 22.4279 12.6513 22.4186 12.6513 22.4093V19.2093H15.0269C15.9016 19.2093 16.6198 18.5116 16.629 17.6279C16.629 16.7441 15.9385 16.0186 15.0637 16.0093C15.0545 16.0093 15.0453 16.0093 15.0361 16.0093H12.6605V14.4093H15.828L15.8188 14.4Z" fill="#9747FF"/>
<path d="M44.3257 14.4C45.2004 14.4 45.9002 13.6651 45.891 12.7813C45.891 11.9069 45.182 11.2093 44.3257 11.2H39.5745C38.6998 11.2 37.9908 11.9162 37.9908 12.8V22.4C37.9908 23.2837 38.6998 24 39.5745 24H44.3257C45.2004 24 45.9002 23.2651 45.891 22.3813C45.891 21.5069 45.182 20.8093 44.3257 20.8H41.1582V19.2H43.497C44.3717 19.2 45.0899 18.5023 45.0991 17.6186C45.1083 16.7348 44.4085 16.0093 43.5338 16C43.5246 16 43.5154 16 43.5062 16H41.1674V14.4H44.3349H44.3257Z" fill="#9747FF"/>
<path d="M35.2193 14.4C36.094 14.4 36.8122 13.7023 36.8214 12.8186C36.8214 11.9348 36.1309 11.2093 35.2561 11.2C35.2469 11.2 35.2377 11.2 35.2285 11.2H30.4773C29.6026 11.2 28.8936 11.9162 28.8936 12.8V22.4C28.8936 23.2837 29.6026 24 30.4773 24H35.2285C36.1032 24 36.8214 23.3023 36.8306 22.4186C36.8306 21.5348 36.1401 20.8093 35.2653 20.8C35.2561 20.8 35.2469 20.8 35.2377 20.8H32.0703V19.2H34.409C35.2837 19.2 36.0019 18.5023 36.0112 17.6186C36.0112 16.7348 35.3206 16.0093 34.4458 16C34.4366 16 34.4274 16 34.4182 16H32.0795V14.4H35.2469H35.2193Z" fill="#9747FF"/>
<path d="M1.5653 30.4H9.48388C10.3586 30.4 11.0584 29.6651 11.0492 28.7813C11.0492 27.9069 10.3402 27.2093 9.48388 27.2H1.5653C0.690573 27.2 -0.00920938 27.9348 -1.72102e-06 28.8186C-1.72102e-06 29.693 0.708988 30.3906 1.5653 30.4Z" fill="#9747FF"/>
</g>
<defs>
<clipPath id="clip0_264_1242">
<rect width="76" height="48" fill="white"/>
</clipPath>
</defs>
</svg>
