<svg width="70" height="70" viewBox="0 0 70 70" fill="none" xmlns="http://www.w3.org/2000/svg">
<g clip-path="url(#clip0_294_271)">
<path d="M67.9734 53.0762L52.1944 37.3127C51.4364 36.6165 50.2298 36.4 49.3016 37.3127C48.4817 38.1325 47.1513 38.1325 46.3314 37.3127L44.5524 35.5337L51.7303 28.3558C52.9988 28.7116 54.2828 28.8817 55.5668 28.8817C59.3259 28.8817 63.0232 27.4121 65.7767 24.674C70.1237 20.327 71.2375 13.6906 68.5458 8.16791C68.2519 7.58006 67.695 7.16238 67.0453 7.03863C66.3955 6.93034 65.7303 7.14691 65.2508 7.611L58.4287 14.4176L56.1392 13.9381L55.6596 11.6486L62.4817 4.84194C62.9458 4.37785 63.1624 3.71266 63.0541 3.06294C62.9458 2.41321 62.5281 1.85631 61.9403 1.56238C56.4022 -1.1448 49.7657 -0.046456 45.4033 4.31597C41.7215 7.99774 40.3292 13.3812 41.706 18.3469L31.6508 28.3867L15.5005 12.2519L17.3104 10.4419C17.7127 10.0397 17.9292 9.48283 17.9138 8.89498C17.8828 8.3226 17.6198 7.78117 17.1867 7.4099L8.91045 0.479511C8.09056 -0.201152 6.8994 -0.154743 6.14139 0.603268L1.03642 5.70824C0.278405 6.46625 0.231996 7.65741 0.912659 8.4773L7.85852 16.7381C8.22979 17.1712 8.77122 17.4497 9.3436 17.4651C9.37454 17.4651 9.40548 17.4651 9.43642 17.4651C9.97785 17.4651 10.5038 17.2486 10.8906 16.8618L12.6077 15.1447L28.7425 31.264L18.285 41.7215C13.3193 40.3447 7.93586 41.7215 4.23863 45.4187C-0.108335 49.7657 -1.22215 56.4022 1.46957 61.9248C1.76349 62.5127 2.32039 62.9303 2.97012 63.0541C3.61984 63.1624 4.28503 62.9458 4.76459 62.4817L11.5867 55.6751L13.8762 56.1546L14.3558 58.4441L7.53365 65.2508C7.06957 65.7149 6.85299 66.3801 6.96128 67.0298C7.06957 67.6795 7.48724 68.2364 8.07509 68.5303C10.1016 69.5204 12.2674 70 14.4176 70C18.1613 70 21.843 68.5458 24.6121 65.7767C28.2939 62.095 29.6861 56.7116 28.3093 51.7458L36.4 43.6707L38.179 45.4497C38.5812 45.8519 38.7977 46.3624 38.7977 46.9348C38.7977 47.5071 38.5812 48.0176 38.179 48.4198C37.4519 49.1314 37.3281 50.5237 38.179 51.3281L53.958 67.0917C55.3038 68.4375 57.0674 69.1182 58.8464 69.1182C60.6099 69.1182 62.3889 68.4375 63.7348 67.0917L67.9734 62.853C69.2729 61.5535 70 59.8209 70 57.9646C70 56.1237 69.2884 54.3911 67.9734 53.0762ZM9.56017 12.3911L5.25962 7.27067L7.70382 4.82647L12.8243 9.11156L9.5447 12.3756L9.56017 12.3911ZM24.5193 49.7348C23.9469 50.3071 23.7613 51.158 24.0552 51.916C25.4939 55.706 24.5812 60.0066 21.7193 62.8685C19.7392 64.8486 17.0939 65.885 14.4176 65.885C13.8762 65.885 13.3348 65.8386 12.7933 65.7613L18.0375 60.5326C18.5326 60.0375 18.7337 59.3414 18.5944 58.6607L17.6044 53.9734C17.4342 53.1845 16.8154 52.5502 16.0265 52.3955L11.3392 51.4055C10.6585 51.2663 9.96238 51.4674 9.46736 51.9624L4.23863 57.1911C3.7436 54.0044 4.76459 50.6784 7.13144 48.3116C10.0088 45.4497 14.3093 44.5215 18.0994 45.9756C18.8574 46.2696 19.7082 46.0839 20.2806 45.5116L45.4651 20.327C46.0375 19.7547 46.2232 18.9038 45.9292 18.1458C44.4906 14.3558 45.4033 10.0552 48.2651 7.19332C50.6475 4.811 53.9734 3.79001 57.1756 4.30051L51.9314 9.52923C51.4364 10.0243 51.2353 10.7204 51.3745 11.4011L52.3646 16.0884C52.5348 16.8773 53.1535 17.5116 53.9425 17.6663L58.6298 18.6563C59.3105 18.7955 60.0066 18.5944 60.5016 18.0994L65.7303 12.8707C66.2254 16.0574 65.2044 19.3834 62.8375 21.7502C59.9602 24.6121 55.6596 25.5403 51.8696 24.0861C51.1116 23.7922 50.2607 23.9779 49.6884 24.5502L24.4884 49.7193L24.5193 49.7348ZM41.0718 42.5569L39.2928 40.7779L41.6442 38.4265L43.4232 40.2055C43.9491 40.7314 44.537 41.1337 45.1558 41.4276L42.2939 44.2895C42 43.6552 41.5823 43.0674 41.0718 42.5569ZM65.0806 59.9447L60.8419 64.1834C59.7436 65.2817 57.9646 65.2817 56.8662 64.1834L42.5259 49.8585L50.7403 41.6596L65.0806 55.9845C65.6066 56.5104 65.9005 57.2221 65.9005 57.9646C65.9005 58.7071 65.6066 59.4187 65.0806 59.9447Z" fill="#2DC4EB"/>
</g>
<defs>
<clipPath id="clip0_294_271">
<rect width="70" height="70" fill="white"/>
</clipPath>
</defs>
</svg>
