<svg width="78" height="78" viewBox="0 0 78 78" fill="none" xmlns="http://www.w3.org/2000/svg">
<g clip-path="url(#clip0_262_1218)">
<path d="M41.51 78C41.15 78 40.81 77.86 40.56 77.61L33.03 70.08C32.78 69.83 32.64 69.49 32.64 69.13C32.64 68.77 32.78 68.43 33.03 68.18L36.47 64.74C37.22 63.99 37.61 62.94 37.54 61.88C37.46 60.82 36.93 59.84 36.08 59.2L30.67 55.14C30.33 54.89 30.13 54.49 30.13 54.06V47.36L25.85 45.22C25.39 44.99 25.11 44.53 25.11 44.02V39.97L18.5 37.77C17.95 37.59 17.58 37.07 17.58 36.5V31.14L9.48 35.19C9.29 35.28 9.09 35.33 8.88 35.33C8.52 35.33 8.18 35.19 7.93 34.94L0.39 27.4C0.14 27.15 0 26.81 0 26.45C0 26.09 0.14 25.75 0.39 25.5L7.53 18.36V12.22C7.53 10.55 8.43 8.99 9.89 8.17C10.59 7.77 11.38 7.57 12.19 7.57C13 7.57 13.82 7.79 14.53 8.2C15.16 8.57 15.8 8.75 16.46 8.75C17.12 8.75 17.7 8.59 18.25 8.28C19.38 7.64 20.09 6.43 20.09 5.12V3.86C20.09 3.28 20.46 2.77 21.01 2.59L28.53 0.07C28.67 0.02 28.81 0 28.95 0C29.53 0 30.04 0.37 30.22 0.92L32.42 7.53H38.43L43.06 2.9C43.31 2.65 43.65 2.51 44.01 2.51C44.05 2.51 44.1 2.51 44.14 2.51C44.54 2.55 44.9 2.77 45.12 3.1L49.93 10.31L74.37 21.42C76.56 22.42 77.98 24.62 77.98 27.03C77.98 28.63 77.36 30.13 76.23 31.26L70.45 37.04V46.52C70.45 46.87 70.31 47.22 70.06 47.47L60.02 57.51C59.77 57.76 59.42 57.9 59.07 57.9C54.27 57.9 50.37 61.8 50.37 66.6V69.11C50.37 69.46 50.23 69.81 49.98 70.06L42.45 77.59C42.2 77.84 41.86 77.98 41.5 77.98L41.51 78ZM18.92 27.61C19.17 27.61 19.41 27.68 19.63 27.81C20.03 28.06 20.27 28.48 20.27 28.95V35.51L26.88 37.71C27.43 37.89 27.8 38.41 27.8 38.98V43.17L32.08 45.31C32.54 45.54 32.82 46 32.82 46.51V53.37L37.69 57.02C39.17 58.13 40.09 59.82 40.22 61.66C40.35 63.5 39.68 65.31 38.37 66.61L35.88 69.1L41.51 74.73L47.7 68.54V66.58C47.7 60.69 52.29 55.7 58.15 55.23L58.52 55.2L67.78 45.94V36.46C67.78 36.11 67.92 35.76 68.17 35.51L74.34 29.34C74.96 28.72 75.3 27.89 75.3 27.01C75.3 25.65 74.5 24.41 73.26 23.85L48.47 12.58C48.24 12.48 48.05 12.31 47.91 12.1L43.8 5.93L39.94 9.79C39.69 10.04 39.34 10.18 38.99 10.18H31.46C30.88 10.18 30.37 9.81 30.19 9.26L28.1 3L22.79 4.77L22.75 5.45C22.62 7.6 21.43 9.51 19.56 10.57C18.62 11.11 17.54 11.39 16.45 11.39C15.36 11.39 14.22 11.09 13.26 10.53C12.89 10.31 12.54 10.21 12.18 10.21C11.82 10.21 11.5 10.3 11.21 10.47C10.59 10.82 10.21 11.48 10.21 12.18V18.88C10.21 19.24 10.07 19.58 9.82 19.83L3.24 26.41L9.14 32.31L18.32 27.72C18.51 27.63 18.71 27.58 18.92 27.58V27.61Z" fill="#68DCFA"/>
<path d="M44.29 30.0899C46.13 30.0899 47.62 28.5899 47.62 26.7599C47.62 24.9299 46.12 23.4299 44.29 23.4299C42.46 23.4299 40.96 24.9299 40.96 26.7599C40.96 28.5899 42.46 30.0899 44.29 30.0899ZM44.29 25.6399C44.9 25.6399 45.4 26.1399 45.4 26.7499C45.4 27.3599 44.9 27.8599 44.29 27.8599C43.68 27.8599 43.18 27.3599 43.18 26.7499C43.18 26.1399 43.68 25.6399 44.29 25.6399Z" fill="#68DCFA"/>
<path d="M54.29 26.75C54.29 21.24 49.8 16.75 44.29 16.75C38.78 16.75 34.29 21.24 34.29 26.75C34.29 28.93 34.98 31 36.29 32.75L41.63 39.86C42.26 40.7 43.25 41.19 44.3 41.19C45.35 41.19 46.34 40.69 46.97 39.86L52.31 32.75C53.62 31.01 54.31 28.94 54.31 26.75H54.29ZM50.52 31.41L45.18 38.52C44.97 38.8 44.64 38.97 44.29 38.97C43.94 38.97 43.61 38.81 43.4 38.52L38.06 31.41C37.05 30.06 36.51 28.44 36.51 26.75C36.51 22.46 40 18.97 44.29 18.97C48.58 18.97 52.07 22.46 52.07 26.75C52.07 28.45 51.53 30.06 50.52 31.41Z" fill="#68DCFA"/>
<path d="M49.84 44.09C49.84 43.48 49.34 42.98 48.73 42.98H39.84C39.23 42.98 38.73 43.48 38.73 44.09C38.73 44.7 39.23 45.2 39.84 45.2H48.73C49.34 45.2 49.84 44.7 49.84 44.09Z" fill="#68DCFA"/>
</g>
<defs>
<clipPath id="clip0_262_1218">
<rect width="78" height="78" fill="white"/>
</clipPath>
</defs>
</svg>
