<svg width="80" height="79" viewBox="0 0 80 79" fill="none" xmlns="http://www.w3.org/2000/svg">
<g clip-path="url(#clip0_260_1102)">
<path d="M39.1281 38.4551C36.3748 38.4551 34.1415 40.6883 34.1415 43.4417C34.1415 46.195 36.3748 48.4283 39.1281 48.4283C41.8815 48.4283 44.1147 46.195 44.1147 43.4417C44.1147 40.6883 41.8815 38.4551 39.1281 38.4551ZM40.1071 43.4417C40.1071 43.9771 39.6635 44.4207 39.1281 44.4207C38.5927 44.4207 38.1491 43.9771 38.1491 43.4417C38.1491 42.9063 38.5927 42.4627 39.1281 42.4627C39.6635 42.4627 40.1071 42.9063 40.1071 43.4417Z" fill="#2DC4EB"/>
<path d="M39.1281 36.237C42.7534 36.237 45.6903 33.2848 45.6903 29.6748C45.6903 26.0649 42.7381 23.0974 39.1281 23.0974C35.5182 23.0974 32.5507 26.0496 32.5507 29.6748C32.5507 33.3001 35.5029 36.237 39.1281 36.237ZM36.5583 29.6596C36.5583 28.237 37.7055 27.0898 39.1281 27.0898C40.5507 27.0898 41.6979 28.237 41.6979 29.6596C41.6979 31.0821 40.5507 32.2293 39.1281 32.2293C37.7055 32.2293 36.5583 31.0821 36.5583 29.6596Z" fill="#2DC4EB"/>
<path d="M39.1281 50.6309C35.5029 50.6309 32.5507 53.5831 32.5507 57.193C32.5507 60.8029 35.5029 63.7704 39.1281 63.7704C42.7534 63.7704 45.6903 60.8182 45.6903 57.193C45.6903 53.5678 42.7381 50.6309 39.1281 50.6309ZM41.6826 57.2083C41.6826 58.6309 40.5354 59.7781 39.1128 59.7781C37.6903 59.7781 36.543 58.6309 36.543 57.2083C36.543 55.7857 37.6903 54.6385 39.1128 54.6385C40.5354 54.6385 41.6826 55.7857 41.6826 57.2083Z" fill="#2DC4EB"/>
<path d="M23.9082 42.2332C24.9025 42.8145 26.0344 43.1204 27.1816 43.1204C27.7629 43.1204 28.3289 43.0439 28.8948 42.8909C30.5927 42.4321 32 41.346 32.8872 39.8317C33.7744 38.3173 34.0038 36.5429 33.5449 34.8451C33.086 33.1472 32 31.7399 30.4857 30.8527C28.9713 29.9808 27.1969 29.7361 25.499 30.195C23.8011 30.6538 22.3939 31.7399 21.5067 33.2542C20.6348 34.7686 20.3901 36.5429 20.8489 38.2408C21.3078 39.9387 22.3939 41.346 23.9082 42.2332ZM24.9637 35.2581C25.3002 34.6615 25.8662 34.2332 26.5239 34.0649C26.7533 34.0038 26.9675 33.9732 27.1969 33.9732C27.6405 33.9732 28.0841 34.0955 28.4818 34.325C29.0784 34.6615 29.5067 35.2275 29.6749 35.8852C29.8585 36.5429 29.7667 37.2466 29.4149 37.8431C29.0784 38.4397 28.5124 38.868 27.8547 39.0363C27.1969 39.2198 26.4933 39.128 25.912 38.7762C25.3155 38.4397 24.8872 37.8737 24.7189 37.216C24.5354 36.5582 24.6271 35.8546 24.979 35.2733L24.9637 35.2581Z" fill="#2DC4EB"/>
<path d="M57.392 48.6117C56.9331 46.9138 55.847 45.5065 54.3327 44.6193C52.8184 43.7474 51.044 43.5027 49.3461 43.9616C47.6482 44.4204 46.2409 45.5065 45.3537 47.0208C44.4665 48.5352 44.2371 50.3096 44.696 52.0074C45.1549 53.7053 46.2409 55.1126 47.7553 55.9998C48.7495 56.5811 49.8815 56.887 51.0287 56.887C51.6099 56.887 52.1759 56.8105 52.7419 56.6575C54.4398 56.1987 55.847 55.1126 56.7342 53.5983C57.6061 52.0839 57.8509 50.3096 57.392 48.6117ZM53.2773 51.6097C52.9407 52.2063 52.3748 52.6346 51.717 52.8029C51.0593 52.9711 50.3556 52.8946 49.7744 52.5428C49.1778 52.2063 48.7495 51.6403 48.5813 50.9826C48.3977 50.3248 48.4895 49.6212 48.8413 49.04C49.1778 48.4434 49.7438 48.0151 50.4015 47.8468C50.631 47.7857 50.8451 47.7551 51.0746 47.7551C51.5182 47.7551 51.9618 47.8774 52.3595 48.1069C52.956 48.4434 53.3843 49.0094 53.5526 49.6671C53.7361 50.3248 53.6444 51.0285 53.2925 51.6097H53.2773Z" fill="#2DC4EB"/>
<path d="M32.8872 47.0362C32.0153 45.5219 30.5927 44.4358 28.8948 43.9769C27.1969 43.518 25.4226 43.7475 23.9082 44.6347C22.3939 45.5066 21.3078 46.9291 20.849 48.627C20.3901 50.3249 20.6195 52.0993 21.5067 53.6136C22.3786 55.128 23.8012 56.214 25.499 56.6729C26.065 56.8259 26.631 56.9024 27.2122 56.9024C28.3595 56.9024 29.4914 56.5964 30.4857 56.0152C32 55.1433 33.086 53.7207 33.5449 52.0228C34.0038 50.3249 33.7744 48.5505 32.8872 47.0362ZM29.675 50.9827C29.4914 51.6404 29.0784 52.2064 28.4818 52.5429C27.8853 52.8794 27.1969 52.9712 26.5392 52.8029C25.8815 52.6194 25.3155 52.2064 24.979 51.6098C24.6425 51.0133 24.5507 50.3249 24.7189 49.6672C24.9025 49.0094 25.3155 48.4435 25.9121 48.1069C26.3098 47.8775 26.7534 47.7551 27.1969 47.7551C27.4264 47.7551 27.6405 47.7857 27.87 47.8469C28.5277 48.0305 29.0937 48.4588 29.4302 49.04C29.7667 49.6366 29.8585 50.3249 29.6903 50.9827H29.675Z" fill="#2DC4EB"/>
<path d="M45.3537 39.8317C46.2256 41.346 47.6482 42.432 49.3461 42.8909C49.912 43.0439 50.478 43.1204 51.0593 43.1204C52.2065 43.1204 53.3384 42.8145 54.3327 42.2332C55.847 41.3613 56.9331 39.9387 57.392 38.2408C57.8509 36.5429 57.6214 34.7686 56.7342 33.2542C55.8623 31.7399 54.4398 30.6538 52.7419 30.1949C51.044 29.7361 49.2696 29.9655 47.7553 30.8527C46.2409 31.7246 45.1549 33.1471 44.696 34.845C44.2371 36.5429 44.4665 38.3173 45.3537 39.8317ZM48.566 35.8852C48.7495 35.2275 49.1625 34.6615 49.7591 34.325C50.1568 34.0955 50.6004 33.9731 51.044 33.9731C51.2734 33.9731 51.4876 34.0037 51.717 34.0649C52.3748 34.2485 52.9407 34.6615 53.2773 35.258C53.6138 35.8546 53.7055 36.5429 53.5373 37.216C53.3537 37.8737 52.9407 38.4397 52.3442 38.7762C51.7476 39.1127 51.0593 39.2045 50.4015 39.0362C49.7438 38.8527 49.1778 38.4397 48.8413 37.8431C48.5048 37.2466 48.413 36.5582 48.5813 35.9005L48.566 35.8852Z" fill="#2DC4EB"/>
<path d="M79.4187 3.41109C79.8011 3.02868 80 2.5239 80 2.00383C80 1.48375 79.7859 0.963673 79.4187 0.596561C78.6386 -0.183554 77.369 -0.183554 76.5889 0.596561L68.13 9.05545C67.3499 9.83557 67.3499 11.1052 68.13 11.8853C68.5124 12.2677 69.0172 12.4665 69.5373 12.4665C70.0574 12.4665 70.5774 12.2524 70.9446 11.8853L79.4034 3.42639L79.4187 3.41109Z" fill="#2DC4EB"/>
<path d="M68.7878 1.22379C68.5736 0.734308 68.1912 0.351899 67.7017 0.153046C67.2122 -0.0458069 66.6616 -0.0458069 66.1721 0.153046C65.6826 0.367195 65.3002 0.749604 65.1014 1.23909L62.7151 7.0976C62.5163 7.58708 62.5163 8.13775 62.7151 8.62723C62.914 9.11672 63.3117 9.49913 63.8012 9.69798C64.0459 9.78976 64.2906 9.85094 64.5507 9.85094C65.3767 9.85094 66.0956 9.36146 66.4015 8.59664L68.7878 2.73813C68.9866 2.24865 68.9866 1.69798 68.7878 1.2085V1.22379Z" fill="#2DC4EB"/>
<path d="M78.8834 11.0441C78.4092 10.8147 77.8585 10.7688 77.3537 10.937L72.0612 12.7267C71.021 13.0785 70.4551 14.2105 70.8069 15.2659C71.0822 16.0766 71.847 16.6273 72.7036 16.6273C72.9178 16.6273 73.1319 16.5967 73.3461 16.5202L78.6386 14.7305C79.1434 14.5623 79.5564 14.1952 79.7859 13.721C80.0153 13.2468 80.0612 12.6961 79.8929 12.1913C79.7247 11.6866 79.3576 11.2735 78.8834 11.0441Z" fill="#2DC4EB"/>
<path d="M69.4761 68.1148C75.1358 61.1549 78.2409 52.4207 78.2409 43.4264C78.2409 33.5756 74.5851 24.2142 67.9465 16.979C68.0994 16.5048 68.1912 16.0154 68.1912 15.5259C68.1912 13.002 66.1415 10.937 63.6023 10.937C62.8987 10.937 62.2103 11.0899 61.5985 11.3959C55.0057 6.74576 47.2505 4.29834 39.1281 4.29834C32.7954 4.29834 26.4933 5.84327 20.9254 8.78017C15.5411 11.6253 10.8145 15.74 7.20459 20.8031C6.3021 22.088 5.4608 23.4188 4.72658 24.7802C4.60421 25.0096 4.46654 25.2544 4.34417 25.4991L3.83939 26.4934C3.73231 26.7381 3.60994 26.9676 3.50287 27.2123L2.67686 29.0938H2.70746C0.933078 33.6215 0 38.5469 0 43.4111C0 52.4054 3.10516 61.1396 8.76482 68.0842C7.67878 69.2161 7.06692 70.7305 7.06692 72.3366C7.06692 73.9427 7.70937 75.5335 8.88719 76.7113C10.0497 77.8739 11.6099 78.5163 13.262 78.5163H64.979C68.3901 78.5163 71.1587 75.7477 71.1587 72.3366C71.1587 71.067 70.7763 69.8586 70.0574 68.8184C69.8738 68.5584 69.6749 68.3136 69.4608 68.0842L69.4761 68.1148ZM12.4512 70.3327C13.0631 70.088 13.522 69.5679 13.6597 68.9255C13.8126 68.283 13.6291 67.61 13.1855 67.1205C7.25048 60.6349 3.99235 52.2219 3.99235 43.4264C3.99235 37.5526 5.4608 31.7553 8.26004 26.6157C8.97897 25.3003 9.80497 24.0001 10.6922 22.7764L10.9063 22.4857C11.1052 22.2104 11.3193 21.9351 11.5488 21.6597C11.7935 21.3538 12.0382 21.0479 12.2983 20.7419C15.2046 17.3003 18.8298 14.3939 22.7763 12.3136C27.7782 9.68266 33.4226 8.29069 39.1128 8.29069C46.8681 8.29069 54.2256 10.7687 60.3748 15.4647C61.2314 16.1224 62.4551 15.9848 63.1281 15.1435C63.4493 14.7611 64.1683 15.0211 64.1683 15.5106C64.1683 15.6635 64.1071 15.8012 64.0153 15.9083C63.2658 16.7037 63.2811 17.9121 64.0459 18.6922C70.608 25.3155 74.218 34.0957 74.218 43.4111C74.218 52.2066 70.9445 60.6196 65.0249 67.1052C64.5813 67.5947 64.3977 68.2677 64.5507 68.9102C64.7036 69.5526 65.1472 70.0727 65.7591 70.3175C66.1568 70.4704 66.5086 70.7458 66.7533 71.1129C67.0134 71.48 67.1358 71.9083 67.1358 72.3519C67.1358 73.5603 66.1568 74.5393 64.9484 74.5393H13.262C12.6807 74.5393 12.13 74.3098 11.717 73.8968C11.304 73.4838 11.0746 72.9331 11.0746 72.3519C11.0746 71.4494 11.6099 70.654 12.4512 70.3175V70.3327Z" fill="#2DC4EB"/>
<path d="M39.1281 15.2964C23.6176 15.2964 10.9828 27.9159 10.9828 43.4417C10.9828 58.9675 23.6023 71.587 39.1281 71.587C49.499 71.587 58.9981 65.9121 63.9235 56.7648L63.9847 56.6272C64.7036 55.2964 65.3002 53.8891 65.7591 52.543L65.8356 52.3442C66.7839 49.4838 67.2734 46.501 67.2734 43.457C67.2734 27.9465 54.6539 15.3117 39.1281 15.3117V15.2964ZM63.2658 43.4417C63.2658 45.3232 63.0516 47.1893 62.6233 49.0096C61.8126 52.436 60.283 55.6023 58.0803 58.3862L57.6826 58.9063C53.0784 64.4436 46.3633 67.5947 39.1281 67.5947C25.8203 67.5947 14.9904 56.7648 14.9904 43.457C14.9904 30.1492 25.8203 19.3193 39.1281 19.3193C52.4359 19.3193 63.2658 30.1492 63.2658 43.457V43.4417Z" fill="#2DC4EB"/>
</g>
<defs>
<clipPath id="clip0_260_1102">
<rect width="80" height="78.5621" fill="white"/>
</clipPath>
</defs>
</svg>
