<svg width="80" height="80" viewBox="0 0 80 80" fill="none" xmlns="http://www.w3.org/2000/svg">
<g clip-path="url(#clip0_262_1215)">
<path d="M80 38.69C80 38.34 79.85 38.01 79.59 37.77L58.95 18.42C58.95 18.42 58.93 18.41 58.92 18.4C55.38 6.87 49.3 0 42.58 0H19.35C8.5 0 0 17.57 0 40C0 62.43 8.5 80 19.35 80H42.58C50.1 80 56.69 71.46 59.91 57.94L60.75 59.88C60.89 60.21 61.17 60.47 61.51 60.59C61.65 60.64 61.79 60.66 61.93 60.66C62.14 60.66 62.35 60.61 62.54 60.51L79.31 51.48C79.86 51.18 80.12 50.53 79.92 49.93L77.27 41.98L79.61 39.64C79.86 39.39 79.99 39.06 79.99 38.71L80 38.69ZM67.1 48.49L47.81 29.21L48.88 20.64H57.55L76.86 38.73L67.1 48.48V48.49ZM51.61 40C51.61 55.97 46.85 67.1 42.58 67.1C38.31 67.1 33.55 55.97 33.55 40C33.55 29.4 35.72 19.83 39.03 15.34C40.34 16.63 42.26 17.1 44.02 16.54L46.4 19.71L45.17 29.52C45.12 29.92 45.26 30.31 45.54 30.59L49.93 34.98L51.6 38.82C51.61 39.22 51.61 39.61 51.61 40ZM42.58 14.19C41.15 14.19 40 13.03 40 11.61C40 10.19 41.16 9.03 42.58 9.03C44 9.03 45.16 10.19 45.16 11.61C45.16 13.03 44 14.19 42.58 14.19ZM30.42 77.39C26.82 77.12 23.46 74.16 20.74 69.42L24.72 70.41C26.14 73.08 28.08 75.45 30.42 77.38V77.39ZM19.19 66.37C18.72 65.32 18.27 64.2 17.86 63.03L21.9 64.18C22.3 65.29 22.73 66.35 23.19 67.36L19.19 66.36V66.37ZM7.74 40C7.74 39.34 7.74 38.67 7.77 38.02L11.68 36.9C11.64 37.92 11.62 38.95 11.62 40C11.62 40.23 11.62 40.45 11.62 40.68L7.76 41.78C7.75 41.19 7.74 40.59 7.74 40ZM18.19 35.37L14.4 34.29C14.49 33.05 14.6 31.83 14.75 30.62L18.47 31.68C18.35 32.89 18.26 34.12 18.19 35.37ZM18.09 38.03C18.07 38.68 18.06 39.34 18.06 40C18.06 40.56 18.06 41.11 18.08 41.66L14.19 40.37V40.01C14.19 38.98 14.21 37.96 14.25 36.95L18.08 38.04L18.09 38.03ZM14.26 43.1L18.18 44.41C18.25 45.75 18.35 47.07 18.48 48.36L14.53 47.23C14.4 45.88 14.32 44.5 14.26 43.1ZM18.77 29.08L15.11 28.03C15.31 26.79 15.53 25.57 15.78 24.39L19.38 25.23C19.14 26.48 18.94 27.77 18.77 29.08ZM11.68 43.35C11.73 44.6 11.8 45.84 11.9 47.05L8.16 48.12C8.03 46.91 7.94 45.68 7.87 44.43L11.68 43.35ZM16.9 60.08C16.56 58.9 16.24 57.67 15.95 56.41L19.95 57.55C20.24 58.82 20.57 60.04 20.92 61.23L16.9 60.08ZM15.38 53.56C15.17 52.4 14.99 51.21 14.83 50L18.8 51.13C18.96 52.34 19.15 53.53 19.37 54.69L15.38 53.55V53.56ZM19.9 22.72L16.37 21.89C16.73 20.47 17.13 19.1 17.57 17.79L20.94 18.75C20.56 20.02 20.22 21.33 19.91 22.7L19.9 22.72ZM21.73 16.3L18.46 15.37C19.04 13.9 19.71 12.46 20.47 11.07L23.51 11.94C22.84 13.36 22.25 14.82 21.74 16.3H21.73ZM24.71 9.6L21.86 8.78C24.36 5.1 27.29 2.85 30.41 2.62C28.07 4.55 26.14 6.92 24.71 9.6ZM23.96 2.62C22.05 4.17 20.42 6.03 19.14 8.12L15.07 9.28C17.64 5.29 20.7 2.86 23.96 2.61V2.62ZM13.29 12.48L17.36 11.32C16.82 12.41 16.32 13.56 15.84 14.78L11.79 15.94C12.25 14.72 12.75 13.56 13.28 12.48H13.29ZM10.76 18.91L14.79 17.76C14.41 18.95 14.07 20.18 13.75 21.45L9.74 22.6C10.05 21.33 10.39 20.1 10.76 18.91ZM9.11 25.47L13.1 24.33C12.87 25.49 12.66 26.69 12.48 27.91L8.51 29.04C8.69 27.82 8.89 26.63 9.11 25.47ZM8.17 31.82L12.13 30.69C12 31.83 11.9 33 11.82 34.17L7.89 35.29C7.96 34.12 8.05 32.96 8.17 31.81V31.82ZM12.17 49.66C12.31 50.89 12.48 52.1 12.68 53.28L9.08 54.31C8.86 53.14 8.66 51.94 8.49 50.71L12.18 49.66H12.17ZM13.14 55.84C13.43 57.26 13.76 58.62 14.12 59.94L10.66 60.75C10.27 59.5 9.93 58.19 9.62 56.85L13.15 55.84H13.14ZM14.85 62.42C15.31 63.86 15.82 65.22 16.37 66.51L13.19 67.31C12.55 65.97 11.98 64.6 11.48 63.21L14.85 62.42ZM17.47 68.9C18.99 72.17 21.21 75.07 23.97 77.39C20.43 77.12 17.13 74.27 14.43 69.66L17.47 68.9ZM20.64 40C20.64 21.42 27.09 5.49 35.16 2.94C28.09 8.84 23.22 23.02 23.22 40C23.22 56.98 28.09 71.16 35.16 77.06C27.09 74.52 20.64 58.58 20.64 40ZM2.58 40C2.58 21.42 9.03 5.49 17.1 2.94C10.03 8.84 5.16 23.02 5.16 40C5.16 56.98 10.03 71.16 17.1 77.06C9.03 74.52 2.58 58.58 2.58 40ZM42.58 77.42C33.49 77.42 25.81 60.28 25.81 40C25.81 19.72 33.49 2.58 42.58 2.58C47.83 2.58 52.93 8.47 56.1 18.06H48.38L46.25 15.22C48.25 13.19 48.23 9.92 46.19 7.92C44.16 5.92 40.89 5.94 38.89 7.98C37.94 8.95 37.4 10.25 37.41 11.61C37.41 12.07 37.49 12.53 37.62 12.97C33.56 17.64 30.96 28.09 30.96 39.99C30.96 59.27 36.94 69.67 42.57 69.67C47.74 69.67 53.2 60.87 54.05 44.48L58.12 53.84C55.55 67.95 49.32 77.41 42.57 77.41L42.58 77.42ZM77.14 49.7L62.56 57.55L54.91 39.96L66.18 51.23C66.68 51.73 67.5 51.73 68 51.23L75.23 44L77.13 49.7H77.14Z" fill="#68DCFA"/>
<path d="M54.19 21.9399C52.05 21.9399 50.32 23.6699 50.32 25.8099C50.32 27.9499 52.05 29.6799 54.19 29.6799C56.33 29.6799 58.06 27.9499 58.06 25.8099C58.06 23.6699 56.33 21.9399 54.19 21.9399ZM54.19 27.0999C53.48 27.0999 52.9 26.5199 52.9 25.8099C52.9 25.0999 53.48 24.5199 54.19 24.5199C54.9 24.5199 55.48 25.0999 55.48 25.8099C55.48 26.5199 54.9 27.0999 54.19 27.0999Z" fill="#68DCFA"/>
</g>
<defs>
<clipPath id="clip0_262_1215">
<rect width="80" height="80" fill="white"/>
</clipPath>
</defs>
</svg>
