<svg width="40" height="37" viewBox="0 0 40 37" fill="none" xmlns="http://www.w3.org/2000/svg">
<rect width="40" height="36.9231" rx="5" fill="#4E008E"/>
<path d="M20.0538 5.53857H19.9418C18.0719 5.53857 16.5466 7.07418 16.5466 8.95682V19.654L15.03 18.1271C13.7073 16.7954 11.553 16.7954 10.226 18.1271C8.89895 19.4632 8.89895 21.6278 10.226 22.9638L17.6022 30.3859C18.925 31.7177 21.0792 31.7177 22.402 30.3859L29.7739 22.9638C31.1009 21.6278 31.1009 19.4632 29.7739 18.1314C28.4469 16.7954 26.2969 16.7954 24.9699 18.1314L23.4446 19.667V8.95682C23.4446 7.06984 21.9194 5.53857 20.0495 5.53857H20.0538ZM25.8402 18.999C26.689 18.1444 28.0634 18.1444 28.9165 18.999C29.7653 19.8536 29.7653 21.2374 28.9165 22.0919L21.5446 29.514C20.6958 30.3686 19.317 30.3686 18.4726 29.514L11.092 22.0919C10.2432 21.2374 10.2432 19.8536 11.092 18.999C11.9408 18.1444 13.3195 18.1444 14.164 18.999L16.7276 21.58C16.9042 21.7579 17.1671 21.81 17.3954 21.7145C17.6238 21.6191 17.7746 21.3935 17.7746 21.1463V8.95682C17.7746 7.75089 18.7483 6.77053 19.9461 6.77053H20.0581C21.2559 6.77053 22.2296 7.75089 22.2296 8.95682V21.1549C22.2296 21.4022 22.3804 21.6278 22.6088 21.7232C22.8371 21.8186 23.0999 21.7666 23.2766 21.5887L25.8445 18.999H25.8402Z" fill="#FFE959"/>
</svg>
